<?xml version="1.0" ?><!DOCTYPE svg  PUBLIC '-//W3C//DTD SVG 1.1//EN'  'http://www.w3.org/Graphics/SVG/1.1/DTD/svg11.dtd'><svg enable-background="new 0 0 512 512" height="512px" id="Calque_1" version="1.1" viewBox="0 0 512 512" width="512px" xml:space="preserve" xmlns="http://www.w3.org/2000/svg" xmlns:xlink="http://www.w3.org/1999/xlink"><g><polygon fill="#FF50CE" points="287.289,140.55 327.26,153.149 319.603,128.931  "/><polygon fill="#FF50CE" points="367.153,296.644 353.647,341.5 353.714,341.517 352.114,346.589 345.557,367.323 343.112,375.061    377.048,344.411  "/><polygon fill="#FF50CE" points="184.74,153.148 224.71,140.55 192.397,128.931  "/><polygon fill="#FF50CE" points="162.685,97.239 156.543,111.962 150.401,126.685 169.952,109.03  "/><polygon fill="#FF50CE" points="158.332,365.53 168.888,375.062 158.276,341.496 158.277,341.496 158.268,341.472 158.338,341.451    144.845,296.642 134.95,344.411  "/><path d="M223.146,72.594c-13.747,2.065-29.989,4.993-46.573,9.058l11.932,19.359L223.146,72.594z" fill="#FF50CE"/><polygon fill="#FF50CE" points="256,130.546 306.035,112.556 256,71.513 205.966,112.555  "/><polygon fill="#FF50CE" points="349.314,97.239 342.048,109.03 361.598,126.684  "/><path d="M335.429,81.648c-16.599-4.066-32.841-6.996-46.583-9.06l34.646,28.423L335.429,81.648z" fill="#FF50CE"/><polygon fill="#FF50CE" points="134.952,167.586 144.846,215.356 158.338,170.546 158.272,170.53 158.281,170.502 158.28,170.502    168.888,136.938  "/><path d="M415.616,168.392l-19.146,4.044l-12.875,62.167l16.975-10.994c0.382-0.248,0.78-0.466,1.191-0.653   c0.399-0.188,0.813-0.345,1.236-0.475c0.008-0.002,0.02-0.007,0.024-0.009c1.688-0.514,3.504-0.575,5.224-0.192   c0.04,0.012,0.081,0.014,0.122,0.021c0.206,0.049,0.405,0.126,0.608,0.188c0.66,0.201,1.307,0.449,1.913,0.789l11.876,6.649   l-19.657-35.03c-1.942-3.46-1.654-7.746,0.736-10.917L415.616,168.392z" fill="#FF50CE"/><polygon fill="#FF50CE" points="406.378,243.674 387.345,256 406.378,268.326 428.393,256  "/><path d="M422.764,282.073l-11.876,6.647c-1.059,0.592-2.22,0.953-3.406,1.124c-2.063,0.297-4.2-0.033-6.064-0.987   c-0.289-0.146-0.58-0.293-0.854-0.471l-5.98-3.873l-10.986-7.116l12.875,62.166l19.146,4.044l-11.768-15.585   c-2.396-3.173-2.686-7.458-0.74-10.92L422.764,282.073z" fill="#FF50CE"/><polygon fill="#FF50CE" points="192.397,383.069 224.707,371.448 192.218,361.209 184.74,358.853  "/><path d="M438.858,217.736c-0.582-12.646-1.826-26.981-4.265-41.282l-10.847,14.358L438.858,217.736z" fill="#FF50CE"/><path d="M418.671,126.579c-1.095-1.938-2.228-3.771-3.398-5.494l-11.312,29.328l23.045-4.867   C424.564,138.405,421.778,132.073,418.671,126.579z" fill="#FF50CE"/><polygon fill="#FF50CE" points="358.504,256.001 334.54,176.412 255.999,151.659 177.459,176.412 153.495,256.001 177.459,335.588    255.999,360.345 334.54,335.588  "/><polygon fill="#FF50CE" points="327.26,358.852 287.292,371.448 319.603,383.069  "/><path d="M387.637,137.154l12.098-31.375c-0.16-0.096-0.332-0.188-0.493-0.284   c-8.432-5.027-18.703-9.729-30.662-14.021l9.012,21.604L387.637,137.154z" fill="#FF50CE"/><polygon fill="#FF50CE" points="343.111,136.938 353.724,170.502 353.732,170.528 353.66,170.546 356.016,178.371 367.153,215.357    377.048,167.585  "/><path d="M288.852,439.405c10.309-1.549,22.021-3.582,34.229-6.218c4.07-0.878,8.195-1.824,12.343-2.841   l-11.932-19.359L288.852,439.405z" fill="#FF50CE"/><polygon fill="#FF50CE" points="349.313,414.76 361.595,385.317 342.047,402.971  "/><polygon fill="#FF50CE" points="256,381.451 205.966,399.445 256,440.486 306.034,399.445  "/><path d="M176.572,430.346c4.147,1.017,8.273,1.963,12.343,2.841c10.176,2.196,20.006,3.975,28.965,5.402   c1.792,0.286,3.552,0.558,5.27,0.813l-34.646-28.418L176.572,430.346z" fill="#FF50CE"/><polygon fill="#FF50CE" points="150.402,385.317 162.685,414.761 169.952,402.972 155.519,389.937  "/><path d="M368.579,420.527c12.188-4.374,22.637-9.17,31.156-14.305l-12.097-31.376L368.579,420.527z" fill="#FF50CE"/><path d="M434.605,335.564c1.729-10.146,2.85-20.3,3.566-29.868c0.294-3.927,0.524-7.765,0.693-11.444   l-15.115,26.938L434.605,335.564z" fill="#FF50CE"/><path d="M415.271,390.922c4.513-6.621,8.443-14.811,11.743-24.468l-23.057-4.866L415.271,390.922z" fill="#FF50CE"/><path d="M96.384,343.608l19.147-4.044l12.876-62.166l-16.974,10.992c-0.171,0.11-0.356,0.194-0.533,0.293   c-2.98,1.672-6.789,1.72-9.79,0.038l-11.876-6.649l19.658,35.031c1.941,3.465,1.65,7.751-0.741,10.921L96.384,343.608z" fill="#FF50CE"/><path d="M96.728,121.079c-4.515,6.62-8.442,14.806-11.742,24.464l23.053,4.869L96.728,121.079z" fill="#FF50CE"/><path d="M115.531,172.435l-19.148-4.043l11.771,15.584c2.393,3.17,2.684,7.456,0.741,10.92l-19.657,35.031   l11.877-6.65c1.487-0.833,3.176-1.271,4.884-1.271l0,0l0,0c1.938,0,3.815,0.556,5.438,1.604l16.974,10.993L115.531,172.435z" fill="#FF50CE"/><path d="M112.263,406.221c8.517,5.134,18.964,9.929,31.153,14.305l-19.057-45.681L112.263,406.221z" fill="#FF50CE"/><path d="M143.42,91.474c-12.188,4.375-22.638,9.17-31.152,14.305l12.099,31.376L143.42,91.474z" fill="#FF50CE"/><polygon fill="#FF50CE" points="124.655,256 105.623,243.675 83.608,256 97.72,263.902 105.622,268.326  "/><path d="M77.396,176.436c-2.441,14.316-3.687,28.662-4.267,41.317l15.12-26.943L77.396,176.436z" fill="#FF50CE"/><path d="M96.731,390.912l11.309-29.324l-23.042,4.862C88.295,376.11,92.222,384.295,96.731,390.912z" fill="#FF50CE"/><path d="M79.772,306.077l-6.63-11.813c0.583,12.646,1.823,26.979,4.264,41.283l10.843-14.361L79.772,306.077z" fill="#FF50CE"/></g><g opacity="0.3"><polygon points="199.193,131.37 193.142,150.5 184.742,153.151 192.403,128.93  "/><polygon points="167.202,104.56 164.113,111.96 162.542,115.731 150.403,126.691 156.542,111.96 162.693,97.24  "/><polygon points="168.892,375.06 158.332,365.531 134.952,344.407 144.852,296.64 149.332,311.51 142.512,344.407 165.872,365.51     "/><path d="M221.332,74.08c-11.51,1.92-24.24,4.397-37.188,7.567l9.391,15.239l-5.03,4.12l-11.93-19.359   c16.59-4.061,32.83-6.987,46.58-9.061L221.332,74.08z"/><polygon points="213.532,112.55 259.783,129.191 256.002,130.55 205.972,112.55 256.002,71.51 259.783,74.611  "/><polygon points="165.872,146.5 142.512,167.59 149.332,200.49 144.852,215.361 134.952,167.59 168.892,136.941  "/><polygon points="199.193,380.63 192.403,383.071 184.742,358.85 192.222,361.21 193.142,361.5  "/><polygon points="185.022,335.59 259.783,359.151 256.002,360.34 177.462,335.59 153.502,256 177.462,176.41 256.002,151.66    259.783,152.85 185.022,176.41 161.062,256  "/><polygon points="213.532,399.441 259.783,437.39 256.002,440.49 205.972,399.441 256.002,381.448 259.783,382.81  "/><path d="M223.153,439.401c-1.721-0.25-3.48-0.521-5.271-0.811c-8.96-1.433-18.79-3.21-28.96-5.399   c-4.08-0.881-8.197-1.83-12.35-2.841l11.93-19.359l5.03,4.12l-9.4,15.239c4.15,1.011,8.28,1.96,12.354,2.841   c8.646,1.859,17.039,3.43,24.869,4.729L223.153,439.401z"/><polygon points="167.202,407.441 162.693,414.76 150.403,385.321 155.522,389.941 162.532,396.27  "/><path d="M116.452,317.1c1.95,3.471,1.66,7.75-0.74,10.92l-10.317,13.69l-9.013,1.897l11.771-15.591   c2.39-3.17,2.688-7.449,0.739-10.92L89.233,282.07l11.029,6.183L116.452,317.1z"/><path d="M108.042,150.41l-23.05-4.87c3.3-9.66,7.229-17.84,11.74-24.46l2.96,7.67c-2.631,4.97-5.021,10.567-7.144,16.79l14.82,3.13   L108.042,150.41z"/><path d="M116.462,194.901l-16.188,28.853l-11.039,6.18l19.659-35.029c1.938-3.471,1.647-7.75-0.739-10.92L96.382,168.39l9.013,1.9   l10.317,13.688C118.113,187.151,118.403,191.43,116.462,194.901z"/><path d="M143.422,420.531c-12.188-4.38-22.64-9.181-31.157-14.311l12.101-31.38l3.93,9.42l-8.46,21.96   c6.34,3.817,13.762,7.46,22.16,10.88L143.422,420.531z"/><path d="M141.992,94.901c-8.4,3.42-15.82,7.053-22.16,10.88l8.46,21.939l-3.93,9.431l-12.101-31.37   c8.521-5.141,18.971-9.931,31.157-14.311L141.992,94.901z"/><polygon points="105.282,263.901 109.132,266.06 105.622,268.33 97.722,263.901 83.613,256 105.622,243.67 109.132,245.941    91.172,256  "/><path d="M83.672,184.75c-0.84,6.02-1.487,11.979-1.979,17.76l-8.563,15.24c0.58-12.65,1.83-27,4.271-41.313L83.672,184.75z"/><path d="M107.372,363.327l-14.811,3.12c2.12,6.21,4.511,11.813,7.141,16.78l-2.97,7.688c-4.511-6.632-8.44-14.812-11.73-24.472   l23.04-4.857L107.372,363.327z"/><path d="M83.682,327.24l-6.271,8.313c-2.438-14.3-3.688-28.643-4.271-41.28l6.63,11.811l1.938,3.45   C82.202,315.287,82.842,321.24,83.682,327.24z"/></g><g opacity="0.3"><polygon fill="#FFFFFF" points="312.843,131.37 318.893,150.5 327.293,153.151 319.633,128.93  "/><polygon fill="#FFFFFF" points="344.833,104.56 347.923,111.96 349.493,115.731 361.633,126.691 355.493,111.96 349.343,97.24  "/><polygon fill="#FFFFFF" points="343.143,375.06 353.703,365.531 377.083,344.407 367.183,296.64 362.703,311.51 369.523,344.407    346.163,365.51  "/><path d="M290.703,74.08c11.51,1.92,24.24,4.397,37.19,7.567L318.5,96.887l5.03,4.12l11.93-19.359   c-16.59-4.061-32.83-6.987-46.58-9.061L290.703,74.08z" fill="#FFFFFF"/><polygon fill="#FFFFFF" points="298.503,112.55 252.253,129.191 256.033,130.55 306.063,112.55 256.033,71.51 252.253,74.611  "/><polygon fill="#FFFFFF" points="346.163,146.5 369.523,167.59 362.703,200.49 367.183,215.361 377.083,167.59 343.143,136.941  "/><polygon fill="#FFFFFF" points="312.843,380.63 319.633,383.071 327.293,358.85 319.813,361.21 318.893,361.5  "/><polygon fill="#FFFFFF" points="327.013,335.59 252.253,359.151 256.033,360.34 334.573,335.59 358.533,256 334.573,176.41    256.033,151.66 252.253,152.85 327.013,176.41 350.973,256  "/><polygon fill="#FFFFFF" points="298.503,399.441 252.253,437.39 256.033,440.49 306.063,399.441 256.033,381.448 252.253,382.81     "/><path d="M288.883,439.401c1.724-0.25,3.48-0.521,5.271-0.811c8.96-1.433,18.79-3.21,28.96-5.399   c4.08-0.881,8.2-1.83,12.35-2.841l-11.93-19.359l-5.03,4.12l9.4,15.239c-4.15,1.011-8.28,1.96-12.351,2.841   c-8.649,1.859-17.039,3.43-24.869,4.729L288.883,439.401z" fill="#FFFFFF"/><polygon fill="#FFFFFF" points="344.833,407.441 349.343,414.76 361.633,385.321 356.513,389.941 349.503,396.27  "/><path d="M395.583,317.1c-1.95,3.471-1.66,7.75,0.74,10.92l10.32,13.69l9.01,1.897l-11.771-15.591   c-2.39-3.17-2.688-7.449-0.736-10.92l19.659-35.029l-11.029,6.183L395.583,317.1z" fill="#FFFFFF"/><path d="M403.993,150.41l23.053-4.87c-3.303-9.66-7.229-17.84-11.74-24.46l-2.96,7.67   c2.631,4.97,5.021,10.567,7.141,16.79l-14.82,3.13L403.993,150.41z" fill="#FFFFFF"/><path d="M395.573,194.901l16.19,28.853l11.039,6.18l-19.659-35.029c-1.94-3.471-1.65-7.75,0.736-10.92   l11.771-15.591l-9.01,1.9l-10.32,13.688C393.923,187.151,393.633,191.43,395.573,194.901z" fill="#FFFFFF"/><path d="M368.613,420.531c12.189-4.38,22.64-9.181,31.16-14.311l-12.104-31.38l-3.93,9.42l8.46,21.96   c-6.34,3.817-13.76,7.46-22.16,10.88L368.613,420.531z" fill="#FFFFFF"/><path d="M370.043,94.901c8.4,3.42,15.82,7.053,22.16,10.88l-8.46,21.939l3.93,9.431l12.104-31.37   c-8.521-5.141-18.971-9.931-31.16-14.311L370.043,94.901z" fill="#FFFFFF"/><polygon fill="#FFFFFF" points="406.753,263.901 402.903,266.06 406.413,268.33 414.313,263.901 428.426,256 406.413,243.67    402.903,245.941 420.863,256  "/><path d="M428.363,184.75c0.84,6.02,1.49,11.979,1.979,17.76l8.561,15.24c-0.58-12.65-1.83-27-4.271-41.313   L428.363,184.75z" fill="#FFFFFF"/><path d="M404.663,363.327l14.813,3.12c-2.12,6.21-4.514,11.813-7.144,16.78l2.973,7.688   c4.511-6.632,8.438-14.812,11.729-24.472l-23.04-4.857L404.663,363.327z" fill="#FFFFFF"/><path d="M428.353,327.24l6.27,8.313c2.44-14.3,3.69-28.643,4.271-41.28l-6.63,11.811l-1.94,3.45   C429.836,315.287,429.193,321.24,428.353,327.24z" fill="#FFFFFF"/></g><g><polygon fill="none" points="195.981,114.278 256,135.859 316.019,114.279 256,65.046  "/><path d="M143.949,235.678l20.671-68.655c0.007-0.021,0.021-0.042,0.024-0.063l-0.004-0.001l14.567-46.08   l-49.733,44.916L143.949,235.678z" fill="none"/><polygon fill="none" points="240.355,140.86 189.197,122.467 177.074,160.806  "/><path d="M179.21,391.117l-14.566-46.079l0.004-0.001c-0.007-0.021-0.021-0.042-0.024-0.063L143.95,276.32   l-14.475,69.886L179.21,391.117z" fill="none"/><polygon fill="none" points="334.926,160.807 322.803,122.467 271.644,140.861  "/><polygon fill="none" points="316.019,397.721 256,376.141 195.981,397.721 256,446.949  "/><polygon fill="none" points="378.147,256 406.19,274.161 438.632,256 406.19,237.838  "/><path d="M376.271,245.302l27.015-17.496c1.561-1.008,3.545-1.071,5.16-0.166l27.369,15.324l-28.346-50.514   c-0.976-1.732-0.826-3.875,0.366-5.464l19.823-26.252l-35.427,7.482L376.271,245.302z" fill="none"/><path d="M368.051,276.321l-20.672,68.655c-0.007,0.021-0.017,0.042-0.021,0.063l0.004,0.003l-14.57,46.076   l49.736-44.914L368.051,276.321z" fill="none"/><path d="M74.619,164.461c-5.839,26.836-6.944,55.347-6.932,73.212l26.521-47.271L74.619,164.461z" fill="none"/><path d="M437.385,347.535c5.84-26.837,6.94-55.349,6.933-73.21l-26.524,47.268L437.385,347.535z" fill="none"/><polygon fill="none" points="338.565,172.438 255.999,146.416 173.433,172.438 148.273,256.001 173.433,339.562 255.999,365.587    338.565,339.562 363.726,256.001  "/><path d="M324.749,108.507l18.509-30.03c-27.334-7.181-54.531-11.197-71.217-13.207L324.749,108.507z" fill="none"/><path d="M67.691,274.334c-0.008,17.859,1.103,46.359,6.938,73.188L94.21,321.59L67.691,274.334z" fill="none"/><polygon fill="none" points="271.646,371.14 322.803,389.531 334.926,351.193  "/><polygon fill="none" points="177.074,351.194 189.197,389.531 240.353,371.14  "/><path d="M332.789,120.879l14.57,46.079l-0.004,0.001c0.007,0.021,0.017,0.042,0.021,0.063l20.672,68.655l14.479-69.886   L332.789,120.879z" fill="none"/><path d="M444.309,237.667c0.008-17.864-1.104-46.364-6.938-73.191L417.79,190.41L444.309,237.667z" fill="none"/><polygon fill="none" points="335.607,109.95 374.802,145.344 350.175,86.312  "/><path d="M116.018,354.793l-37.479,7.91c4.508,14.898,10.839,28.434,19.688,38.229L116.018,354.793z" fill="none"/><path d="M116.018,157.208l-17.792-46.145c-8.854,9.794-15.188,23.326-19.698,38.227L116.018,157.208z" fill="none"/><path d="M124.18,150.579l28.101-67.36c-15.597,4.919-30.532,10.974-42.785,18.391   c-1.145,0.693-2.248,1.453-3.332,2.246L124.18,150.579z" fill="none"/><path d="M387.82,150.579l18.016-46.726c-1.084-0.793-2.188-1.554-3.332-2.247   c-12.258-7.419-27.188-13.475-42.786-18.395L387.82,150.579z" fill="none"/><path d="M407.839,325.01c-1.192-1.585-1.342-3.729-0.366-5.46l28.346-50.515l-27.369,15.32   c-1.615,0.906-3.602,0.849-5.16-0.166l-27.015-17.491l15.965,77.078l35.427,7.482L407.839,325.01z" fill="none"/><path d="M395.981,157.208l37.478-7.916c-4.508-14.897-10.839-28.433-19.687-38.227L395.981,157.208z" fill="none"/><path d="M124.179,361.421l-18.02,46.724c1.084,0.793,2.188,1.554,3.333,2.247c12.253,7.416,27.188,13.471,42.785,18.39   L124.179,361.421z" fill="none"/><path d="M395.981,354.793l17.792,46.141c8.854-9.795,15.188-23.327,19.698-38.224L395.981,354.793z" fill="none"/><path d="M387.82,361.421l-28.104,67.357c15.602-4.919,30.532-10.974,42.786-18.391   c1.146-0.693,2.249-1.454,3.332-2.247L387.82,361.421z" fill="none"/><polygon fill="none" points="335.606,402.05 350.174,425.686 374.801,366.656  "/><path d="M104.161,186.989c1.197,1.589,1.342,3.729,0.37,5.464l-28.346,50.514l27.37-15.324   c0.76-0.426,1.602-0.637,2.438-0.637c0.947,0,1.896,0.269,2.718,0.803l27.019,17.496l-15.965-77.083l-35.431-7.482L104.161,186.989   z" fill="none"/><path d="M135.729,266.698l-27.019,17.495c-1.556,1.013-3.542,1.072-5.157,0.166l-27.369-15.32l28.346,50.515   c0.972,1.729,0.827,3.875-0.37,5.46l-19.823,26.253l35.43-7.482L135.729,266.698z" fill="none"/><polygon fill="none" points="73.372,255.999 105.809,274.161 133.853,256 105.81,237.838  "/><polygon fill="none" points="176.393,109.95 161.825,86.312 137.199,145.344  "/><polygon fill="none" points="176.393,402.051 137.199,366.656 161.824,425.686  "/><path d="M324.749,403.49l-52.705,43.234c16.688-2.012,43.887-6.029,71.211-13.208L324.749,403.49z" fill="none"/><path d="M187.251,108.507l52.705-43.234c-16.683,2.016-43.883,6.03-71.211,13.208L187.251,108.507z" fill="none"/><path d="M187.25,403.49l-18.507,30.026c27.329,7.178,54.529,11.196,71.212,13.208L187.25,403.49z" fill="none"/><path d="M407.682,93.054c-52.397-31.714-147.293-39.16-151.311-39.461c-0.249-0.019-0.5-0.019-0.749,0   c-4.014,0.301-98.911,7.747-151.308,39.461C51.178,125.218,57.593,247.247,58.126,256c-0.533,8.753-6.944,130.779,46.191,162.943   c52.396,31.714,147.293,39.159,151.308,39.461c0.125,0.009,0.25,0.018,0.375,0.018s0.25-0.009,0.375-0.018   c4.018-0.302,98.91-7.747,151.311-39.461C460.825,386.78,454.41,264.754,453.873,256   C454.406,247.247,460.821,125.218,407.682,93.054z M437.385,347.535l-19.596-25.942l26.524-47.268   C444.325,292.19,443.221,320.698,437.385,347.535z M67.691,274.334l26.519,47.259l-19.581,25.933   C68.794,320.697,67.684,292.197,67.691,274.334z M74.619,164.461l19.592,25.942L67.69,237.674   C67.674,219.807,68.78,191.298,74.619,164.461z M444.309,237.667l-26.521-47.259l19.581-25.936   C443.206,191.302,444.316,219.802,444.309,237.667z M347.379,167.023c-0.007-0.021-0.017-0.042-0.021-0.063l0.004-0.001   l-14.57-46.079l49.736,44.915l-14.479,69.886L347.379,167.023z M322.803,389.531l-51.156-18.394l63.275-19.946L322.803,389.531z    M177.074,351.194l63.278,19.945l-51.156,18.394L177.074,351.194z M255.999,365.587l-82.563-26.025l-25.16-83.561l25.16-83.563   l82.563-26.021l82.566,26.021l25.16,83.563l-25.16,83.561L255.999,365.587z M189.197,122.467l51.158,18.395l-63.282,19.946   L189.197,122.467z M334.926,160.807l-63.278-19.946l51.159-18.395L334.926,160.807z M256,135.859l-60.019-21.581L256,65.046   l60.021,49.23L256,135.859z M164.64,166.958l0.004,0.001c-0.007,0.021-0.021,0.042-0.024,0.063l-20.671,68.655l-14.475-69.885   l49.733-44.916L164.64,166.958z M164.62,344.977c0.007,0.021,0.021,0.042,0.024,0.063l-0.004,0.001l14.566,46.079l-49.733-44.915   l14.475-69.886L164.62,344.977z M256,376.141l60.021,21.58L256,446.949l-60.019-49.229L256,376.141z M347.359,345.038l-0.004-0.001   c0.007-0.021,0.017-0.043,0.021-0.063l20.672-68.655l14.479,69.885l-49.736,44.914L347.359,345.038z M407.839,186.989   c-1.192,1.589-1.342,3.729-0.366,5.464l28.346,50.514l-27.369-15.324c-1.615-0.905-3.604-0.842-5.16,0.166l-27.015,17.496   l15.965-77.083l35.427-7.482L407.839,186.989z M438.632,256l-32.438,18.163L378.147,256l28.043-18.162L438.632,256z    M335.607,109.95l14.563-23.641l24.627,59.031L335.607,109.95z M324.749,108.507L272.041,65.27   c16.686,2.01,43.883,6.026,71.217,13.207L324.749,108.507z M187.251,108.507L168.745,78.48   c27.328-7.178,54.528-11.192,71.211-13.208L187.251,108.507z M176.393,109.95l-39.194,35.394l24.626-59.03L176.393,109.95z    M119.764,168.219l15.965,77.083l-27.019-17.496c-0.821-0.534-1.771-0.803-2.718-0.803c-0.84,0-1.682,0.211-2.438,0.637   l-27.37,15.324l28.346-50.514c0.972-1.732,0.827-3.875-0.37-5.464l-19.824-26.252L119.764,168.219z M133.853,256l-28.043,18.163   L73.372,256l32.438-18.161L133.853,256z M104.161,325.01c1.197-1.585,1.342-3.729,0.37-5.46l-28.346-50.515l27.369,15.32   c1.614,0.906,3.604,0.847,5.157-0.166l27.019-17.491l-15.965,77.078l-35.43,7.482L104.161,325.01z M176.393,402.051l-14.568,23.635   l-24.625-59.03L176.393,402.051z M187.25,403.49l52.705,43.234c-16.683-2.012-43.883-6.03-71.212-13.208L187.25,403.49z    M324.749,403.49l18.506,30.026c-27.324,7.179-54.523,11.196-71.211,13.208L324.749,403.49z M335.606,402.05l39.19-35.396   l-24.627,59.029L335.606,402.05z M392.235,343.78l-15.965-77.082l27.015,17.495c1.559,1.015,3.545,1.072,5.16,0.166l27.369-15.32   l-28.35,50.515c-0.972,1.729-0.822,3.875,0.37,5.46l19.823,26.253L392.235,343.78z M433.463,149.292l-37.479,7.916l17.791-46.142   C422.62,120.862,428.951,134.394,433.463,149.292z M405.836,103.855L387.82,150.58l-28.104-67.364   c15.598,4.919,30.528,10.975,42.786,18.395C403.648,102.302,404.752,103.062,405.836,103.855z M152.281,83.219l-28.101,67.36   l-18.02-46.727c1.084-0.793,2.188-1.553,3.332-2.246C121.749,94.192,136.684,88.137,152.281,83.219z M98.227,111.065l17.792,46.145   l-37.49-7.918C83.038,134.392,89.372,120.86,98.227,111.065z M78.541,362.703l37.479-7.91l-17.791,46.139   C89.379,391.137,83.048,377.605,78.541,362.703z M106.163,408.145l18.02-46.724l28.102,67.356   c-15.597-4.919-30.532-10.974-42.785-18.39C108.351,409.698,107.247,408.938,106.163,408.145z M359.718,428.781l28.104-67.357   l18.016,46.724c-1.083,0.793-2.188,1.554-3.332,2.247C390.25,417.809,375.315,423.863,359.718,428.781z M413.773,400.934   l-17.792-46.141l37.49,7.917C428.966,377.606,422.632,391.139,413.773,400.934z" fill="#020202"/></g><circle cx="351.821" cy="481.823" fill="#FF50CE" r="12"/><circle cx="487.42" cy="343.608" fill="#FF50CE" r="12"/><circle cx="487.42" cy="145.344" fill="#FF50CE" r="12"/><circle cx="368.58" cy="32.963" fill="#FF50CE" r="12"/><circle cx="45.616" cy="458.422" fill="#FF50CE" r="12"/><circle cx="33.616" cy="91.471" fill="#FF50CE" r="12"/><circle cx="33.616" cy="296.645" fill="#FF50CE" r="12"/><polygon fill="#FECD0E" points="483.118,422.45 496.67,402.051 475.687,414.478 455.286,400.935 467.718,421.91 454.17,442.314   475.146,429.887 495.549,443.43 "/><polygon fill="#FECD0E" points="137.176,470.094 150.724,449.692 129.745,462.115 109.344,448.573 121.772,469.554 108.224,489.951   129.204,477.528 149.603,491.071 "/><polygon fill="#FECD0E" points="41.318,189.91 54.866,169.508 33.887,181.935 13.486,168.392 25.914,189.37 12.366,209.771   33.346,197.344 53.745,210.887 "/><polygon fill="#FECD0E" points="104.981,45.234 118.53,24.832 97.55,37.259 77.149,23.716 89.577,44.694 76.03,65.094   97.009,52.668 117.408,66.211 "/><polygon fill="#FECD0E" points="462.087,65.317 475.635,44.914 454.653,57.341 434.255,43.798 446.68,64.777 433.135,85.177   454.112,72.75 474.511,86.293 "/></svg>