<?xml version="1.0" ?><!DOCTYPE svg  PUBLIC '-//W3C//DTD SVG 1.1//EN'  'http://www.w3.org/Graphics/SVG/1.1/DTD/svg11.dtd'><svg enable-background="new 0 0 512 512" height="512px" id="Calque_1" version="1.1" viewBox="0 0 512 512" width="512px" xml:space="preserve" xmlns="http://www.w3.org/2000/svg" xmlns:xlink="http://www.w3.org/1999/xlink"><g><polygon fill="#A9C352" points="431.53,172.47 339.54,80.46 316.13,136.96 375.03,195.87  "/><polygon fill="#A9C352" points="211.81,149.31 149.31,211.81 149.31,300.191 211.81,362.691 300.19,362.691 362.69,300.191    362.69,211.81 300.19,149.31  "/><polygon fill="#A9C352" points="297.65,129.31 321.059,72.81 190.94,72.81 214.35,129.31  "/><polygon fill="#A9C352" points="214.35,382.691 190.94,439.191 321.059,439.191 297.65,382.691  "/><polygon fill="#A9C352" points="80.47,172.47 136.97,195.87 195.87,136.96 172.47,80.46  "/><polygon fill="#A9C352" points="431.53,339.531 375.03,316.13 316.13,375.04 339.53,431.531  "/><polygon fill="#A9C352" points="382.69,297.651 439.179,321.05 439.179,190.95 382.69,214.35  "/><polygon fill="#A9C352" points="195.87,375.04 136.97,316.13 80.47,339.531 172.47,431.531  "/><polygon fill="#A9C352" points="129.31,214.35 72.82,190.95 72.82,321.05 129.31,297.651  "/></g><g opacity="0.3"><polygon points="230.709,129.31 214.349,129.31 190.94,72.81 207.299,72.81  "/><polygon points="230.709,382.69 207.299,439.19 190.94,439.19 214.349,382.69  "/><polygon points="96.829,172.48 141.759,191.08 136.969,195.87 80.469,172.48 172.469,80.46 177.259,92.03  "/><polygon points="177.259,419.959 172.469,431.53 80.469,339.53 136.969,316.131 141.759,320.92 96.829,339.53  "/><polygon points="89.179,197.73 89.179,314.27 72.82,321.051 72.82,190.95  "/></g><g opacity="0.3"><polygon fill="#FFFFFF" points="281.29,129.31 297.651,129.31 321.059,72.81 304.7,72.81  "/><polygon fill="#FFFFFF" points="281.29,382.69 304.7,439.19 321.059,439.19 297.651,382.69  "/><polygon fill="#FFFFFF" points="415.171,172.48 370.241,191.08 375.03,195.87 431.53,172.48 339.53,80.46 334.741,92.03  "/><polygon fill="#FFFFFF" points="334.741,419.959 339.53,431.53 431.53,339.53 375.03,316.131 370.241,320.92 415.171,339.53  "/><polygon fill="#FFFFFF" points="422.821,197.73 422.821,314.27 439.179,321.051 439.179,190.95  "/></g><g><polygon fill="none" points="211.005,134.311 300.994,134.311 328.54,67.811 183.46,67.811  "/><polygon fill="none" points="134.312,300.992 134.312,211.008 67.815,183.463 67.815,328.537  "/><polygon fill="none" points="138.138,201.768 201.766,138.137 174.221,71.639 71.642,174.225  "/><polygon fill="none" points="367.687,209.737 302.264,144.311 209.735,144.311 144.312,209.737 144.312,302.264 209.735,367.692    302.264,367.692 367.687,302.264  "/><polygon fill="none" points="337.778,71.639 310.233,138.137 373.86,201.768 440.356,174.225  "/><polygon fill="none" points="373.86,310.231 310.232,373.865 337.777,440.362 440.356,337.776  "/><polygon fill="none" points="377.687,211.008 377.687,300.992 444.183,328.537 444.183,183.463  "/><polygon fill="none" points="300.994,377.692 211.004,377.692 183.46,444.19 328.54,444.19  "/><polygon fill="none" points="201.767,373.864 138.138,310.231 71.642,337.776 174.222,440.362  "/><path d="M452.719,172.446l-113.16-113.17c-0.938-0.938-2.209-1.465-3.535-1.465H175.977   c-1.326,0-2.599,0.527-3.536,1.465L59.28,172.446c-0.938,0.938-1.464,2.209-1.464,3.535V336.02c0,1.326,0.527,2.598,1.464,3.535   l113.162,113.17c0.938,0.938,2.209,1.465,3.536,1.465h160.045c1.326,0,2.598-0.525,3.536-1.465l113.16-113.17   c0.938-0.938,1.464-2.209,1.464-3.535V175.981C454.183,174.655,453.656,173.383,452.719,172.446z M373.86,201.768l-63.627-63.631   l27.545-66.498l102.578,102.586L373.86,201.768z M302.264,367.692h-92.528l-65.424-65.43v-92.525l65.424-65.428h92.528   l65.423,65.428v92.525L302.264,367.692z M300.994,134.311h-89.989l-27.545-66.5h145.08L300.994,134.311z M201.766,138.137   l-63.628,63.631l-66.496-27.543L174.221,71.639L201.766,138.137z M134.312,211.008v89.984l-66.496,27.545V183.463L134.312,211.008z    M138.138,310.231l63.628,63.633l-27.545,66.498L71.642,337.776L138.138,310.231z M211.004,377.692h89.99l27.546,66.498H183.46   L211.004,377.692z M310.232,373.865l63.628-63.635l66.496,27.545L337.777,440.362L310.232,373.865z M377.687,300.992v-89.984   l66.496-27.545v145.074L377.687,300.992z" fill="#020202"/></g><circle cx="471.13" cy="362.691" fill="#A9C352" r="12"/><circle cx="367.687" cy="485.685" fill="#A9C352" r="12"/><circle cx="57.816" cy="454.19" fill="#A9C352" r="12"/><circle cx="33.813" cy="350.689" fill="#A9C352" r="12"/><circle cx="67.815" cy="122.308" fill="#A9C352" r="12"/><circle cx="138.17" cy="45.808" fill="#A9C352" r="12"/><circle cx="391.484" cy="45.808" fill="#A9C352" r="12"/><circle cx="471.13" cy="71.639" fill="#A9C352" r="12"/><polygon fill="#FECD0E" points="446.881,439.459 460.429,419.058 439.449,431.485 419.049,417.942 431.476,438.919 417.929,459.32   438.908,446.894 459.307,460.437 "/><polygon fill="#FECD0E" points="50.762,58.081 64.311,37.679 43.33,50.106 22.93,36.563 35.358,57.541 21.811,77.941 42.789,65.515   63.189,79.058 "/><polygon fill="#FECD0E" points="133.869,473.952 147.418,453.551 126.437,465.978 106.037,452.435 118.465,473.412 104.918,493.813   125.896,481.387 146.296,494.93 "/><polygon fill="#FECD0E" points="478.831,136.973 492.38,116.572 471.399,128.999 450.999,115.456 463.427,136.433 449.88,156.834   470.858,144.408 491.258,157.951 "/></svg>